<?xml version="1.0" encoding="UTF-8"?><svg id="a" xmlns="http://www.w3.org/2000/svg" width="512" height="512" xmlns:xlink="http://www.w3.org/1999/xlink" viewBox="0 0 512 512"><defs><linearGradient id="b" x1="256" y1="514.6674" x2="256" y2="105.497" gradientUnits="userSpaceOnUse"><stop offset="0" stop-color="#fb923c"/><stop offset="1" stop-color="#ea580c"/></linearGradient><linearGradient id="c" x1="256.0135" y1="422.8799" x2="256.0135" y2="116.0711" xlink:href="#b"/></defs><path d="M502.5166,214.6789c-11.098-65.8934-47.1995-123.5243-101.6381-162.2736C346.4681,13.6561,280.2554-1.5544,214.6296,9.4591,113.1839,25.8808,31.404,104.5905,11.1374,205.3179.0957,260.1696,6.931,315.0025,30.8876,364.4367l-15.7551,47.2371c-4.6523,13.8303-4.6617,29.0502-.0282,42.8335,5.7086,17.0414,17.7221,30.8435,33.8199,38.8619,16.0555,7.9996,34.28,9.2859,51.2885,3.5961l47.4389-15.7832c34.0124,16.4968,70.3204,24.8532,108.0603,24.8532h.0657c16.9381,0,34.0828-1.7276,50.9458-5.1265,100.7368-20.2713,179.4277-101.9667,195.8024-203.1823,4.6383-27.5761,4.6289-55.509-.0094-83.0475Z" fill="url(#b)"/><path d="M483.5504,217.8712c-10.2436-60.8326-43.5659-114.0319-93.8263-149.8047-50.2416-35.7729-111.4311-49.8097-172.0243-39.6224C124.1224,43.5889,48.6848,116.1956,29.9862,209.1111c-10.7225,53.2649-3.2299,106.4078,21.675,153.8139l-18.3043,54.8799c-3.3238,9.8774-3.3238,20.7595-.0188,30.59,4.0796,12.1778,12.6613,22.0365,24.1584,27.7639,11.5018,5.7274,24.5246,6.61,36.6461,2.5633l55.0301-18.3089c33.3411,17.5109,69.5223,26.4024,106.605,26.393,15.6049,0,31.3787-1.568,47.1526-4.7509,92.9249-18.6939,165.5316-94.1549,180.6295-187.5212,4.2815-25.4447,4.2815-51.2369-.0094-76.6628Z" fill="#fff"/><path d="M445.6311,224.2571c-17.6552-104.834-116.9531-175.5059-221.787-157.8507-77.4427,12.5358-140.6778,73.3866-156.1548,150.2906-9.4978,47.1813-1.4037,91.9009,18.5531,129.3539,4.7298,8.8634,5.0948,19.4374,1.923,28.9739l-18.3612,55.0442c-.6649,1.9829-.6649,4.1283,0,6.1112,1.6877,5.0338,7.1364,7.7467,12.1702,6.059l55.0442-18.3612c9.5365-3.1724,20.1105-2.8068,28.9739,1.923,37.4524,19.9567,82.1725,28.0508,129.3533,18.5531,76.924-15.4769,137.7554-78.712,150.2912-156.1741v-.0194c3.5585-21.1527,3.5567-42.7514-.0059-63.9035Z" fill="url(#c)"/><path d="M351.3864,259.3657c-.73,1.4671-1.9189,2.656-3.386,3.386l-.0094-.0094-38.8619,19.4403c-11.6614,5.8325-21.1175,15.2886-26.9494,26.9494l-19.4409,38.8619c-1.852,3.7228-6.3712,5.2386-10.0934,3.386-1.4671-.73-2.656-1.9189-3.386-3.386l-19.4216-38.8619c-5.8348-11.6626-15.2944-21.1187-26.9593-26.9494l-38.8519-19.4403c-3.7228-1.8526-5.2386-6.3717-3.386-10.094.73-1.4671,1.9189-2.656,3.386-3.386l38.8619-19.421c11.6626-5.8354,21.1187-15.2944,26.9494-26.9593l19.4403-38.8525c1.8526-3.7222,6.3717-5.238,10.094-3.386,1.4671.73,2.656,1.9189,3.386,3.386l19.4216,38.8619c5.8348,11.6626,15.2938,21.1187,26.9587,26.9499l38.8619,19.431c3.7222,1.852,5.2386,6.3712,3.386,10.0934Z" fill="#fff"/></svg>